<svg width="16" height="16" viewBox="0 0 16 16" fill="none" xmlns="http://www.w3.org/2000/svg">
<path d="M13.0282 13.718L8.84102 9.53064C8.50768 9.80586 8.12435 10.0212 7.69101 10.1768C7.25768 10.3324 6.8094 10.4101 6.34618 10.4101C5.20674 10.4101 4.2424 10.0156 3.45318 9.22664C2.66396 8.43764 2.26935 7.47353 2.26935 6.3343C2.26935 5.19519 2.66385 4.23075 3.45285 3.44097C4.24185 2.6513 5.20596 2.25647 6.34518 2.25647C7.48429 2.25647 8.44874 2.65108 9.23851 3.4403C10.0282 4.22952 10.423 5.19386 10.423 6.3333C10.423 6.80941 10.3431 7.26414 10.1833 7.69747C10.0235 8.1308 9.81018 8.50769 9.54351 8.82814L13.7307 13.0153L13.0282 13.718ZM6.34618 9.4103C7.20518 9.4103 7.93274 9.11219 8.52885 8.51597C9.12507 7.91986 9.42318 7.1923 9.42318 6.3333C9.42318 5.4743 9.12507 4.74675 8.52885 4.15064C7.93274 3.55441 7.20518 3.2563 6.34618 3.2563C5.48718 3.2563 4.75963 3.55441 4.16351 4.15064C3.56729 4.74675 3.26918 5.4743 3.26918 6.3333C3.26918 7.1923 3.56729 7.91986 4.16351 8.51597C4.75963 9.11219 5.48718 9.4103 6.34618 9.4103Z" fill="#171D9B"/>
</svg>
