<svg width="16" height="16" viewBox="0 0 16 16" fill="none" xmlns="http://www.w3.org/2000/svg">
<g id="buy">
<path id="Vector" d="M3.53866 14.3335C3.20622 14.3335 2.92222 14.2158 2.68666 13.9803C2.45122 13.7448 2.3335 13.4608 2.3335 13.1283V5.53866C2.3335 5.20622 2.45122 4.92222 2.68666 4.68666C2.92222 4.45122 3.20622 4.3335 3.53866 4.3335H5.00016C5.00016 3.50105 5.29205 2.79294 5.87583 2.20916C6.45961 1.62538 7.16772 1.3335 8.00016 1.3335C8.83261 1.3335 9.54072 1.62538 10.1245 2.20916C10.7083 2.79294 11.0002 3.50105 11.0002 4.3335H12.4617C12.7941 4.3335 13.0781 4.45122 13.3137 4.68666C13.5491 4.92222 13.6668 5.20622 13.6668 5.53866V13.1283C13.6668 13.4608 13.5491 13.7448 13.3137 13.9803C13.0781 14.2158 12.7941 14.3335 12.4617 14.3335H3.53866ZM3.53866 13.3335H12.4617C12.513 13.3335 12.56 13.3121 12.6027 13.2693C12.6454 13.2267 12.6668 13.1797 12.6668 13.1283V5.53866C12.6668 5.48733 12.6454 5.44033 12.6027 5.39766C12.56 5.35488 12.513 5.3335 12.4617 5.3335H3.53866C3.48733 5.3335 3.44033 5.35488 3.39766 5.39766C3.35488 5.44033 3.3335 5.48733 3.3335 5.53866V13.1283C3.3335 13.1797 3.35488 13.2267 3.39766 13.2693C3.44033 13.3121 3.48733 13.3335 3.53866 13.3335ZM8.00016 9.00016C8.83261 9.00016 9.54072 8.70827 10.1245 8.1245C10.7083 7.54072 11.0002 6.83261 11.0002 6.00016H10.0002C10.0002 6.55572 9.80572 7.02794 9.41683 7.41683C9.02794 7.80572 8.55572 8.00016 8.00016 8.00016C7.44461 8.00016 6.97238 7.80572 6.5835 7.41683C6.19461 7.02794 6.00016 6.55572 6.00016 6.00016H5.00016C5.00016 6.83261 5.29205 7.54072 5.87583 8.1245C6.45961 8.70827 7.16772 9.00016 8.00016 9.00016ZM6.00016 4.3335H10.0002C10.0002 3.77794 9.80572 3.30572 9.41683 2.91683C9.02794 2.52794 8.55572 2.3335 8.00016 2.3335C7.44461 2.3335 6.97238 2.52794 6.5835 2.91683C6.19461 3.30572 6.00016 3.77794 6.00016 4.3335Z" fill="#171D9B"/>
</g>
</svg>
