<svg width="16" height="16" viewBox="0 0 16 16" fill="none" xmlns="http://www.w3.org/2000/svg">
<g id="shield_person">
<mask id="mask0_18359_10556" style="mask-type:alpha" maskUnits="userSpaceOnUse" x="0" y="0" width="16" height="16">
<rect id="Bounding box" width="16" height="16" fill="#D9D9D9"/>
</mask>
<g mask="url(#mask0_18359_10556)">
<path id="shield_person_2" d="M8 8.50005C7.39144 8.50005 6.87822 8.29105 6.46033 7.87305C6.04233 7.45516 5.83333 6.94194 5.83333 6.33338C5.83333 5.72483 6.04233 5.21161 6.46033 4.79372C6.87822 4.37572 7.39144 4.16672 8 4.16672C8.60856 4.16672 9.12178 4.37572 9.53967 4.79372C9.95767 5.21161 10.1667 5.72483 10.1667 6.33338C10.1667 6.94194 9.95767 7.45516 9.53967 7.87305C9.12178 8.29105 8.60856 8.50005 8 8.50005ZM8 7.50005C8.33167 7.50005 8.609 7.38849 8.832 7.16538C9.05511 6.94238 9.16667 6.66505 9.16667 6.33338C9.16667 6.00172 9.05511 5.72438 8.832 5.50138C8.609 5.27827 8.33167 5.16672 8 5.16672C7.66833 5.16672 7.391 5.27827 7.168 5.50138C6.94489 5.72438 6.83333 6.00172 6.83333 6.33338C6.83333 6.66505 6.94489 6.94238 7.168 7.16538C7.391 7.38849 7.66833 7.50005 8 7.50005ZM8 14.3206C6.55811 13.9273 5.36433 13.0786 4.41867 11.7744C3.47289 10.4702 3 9.01205 3 7.40005V3.56422L8 1.69238L13 3.56422V7.40005C13 9.01205 12.5271 10.4702 11.5813 11.7744C10.6357 13.0786 9.44189 13.9273 8 14.3206ZM8 2.75638L4 4.25005V7.40005C4 8.03427 4.09083 8.64755 4.2725 9.23988C4.45406 9.83211 4.70639 10.3847 5.0295 10.8976C5.47906 10.6684 5.94978 10.4894 6.44167 10.3604C6.93356 10.2313 7.453 10.1667 8 10.1667C8.547 10.1667 9.06644 10.2313 9.55833 10.3604C10.0502 10.4894 10.5209 10.6684 10.9705 10.8976C11.2936 10.3847 11.5459 9.83211 11.7275 9.23988C11.9092 8.64755 12 8.03427 12 7.40005V4.25005L8 2.75638ZM8 11.1667C7.57011 11.1667 7.15667 11.2133 6.75967 11.3064C6.36267 11.3996 5.98767 11.5304 5.63467 11.6987C5.96544 12.0663 6.32933 12.3841 6.72633 12.6521C7.12333 12.9199 7.54789 13.1248 8 13.2667C8.45211 13.1248 8.87561 12.9199 9.2705 12.6521C9.66539 12.3841 10.0282 12.0663 10.359 11.6987C10.006 11.5304 9.63206 11.3996 9.23717 11.3064C8.84228 11.2133 8.42989 11.1667 8 11.1667Z" fill="#171C8F"/>
</g>
</g>
</svg>
