<svg width="16" height="16" viewBox="0 0 16 16" fill="none" xmlns="http://www.w3.org/2000/svg">
<g id="signin">
<path id="Vector" d="M7.99365 13.6666V12.6666H12.4615C12.5128 12.6666 12.5598 12.6453 12.6025 12.6025C12.6453 12.5598 12.6666 12.5128 12.6666 12.4615V3.53848C12.6666 3.48715 12.6453 3.44015 12.6025 3.39748C12.5598 3.3547 12.5128 3.33331 12.4615 3.33331H7.99365V2.33331H12.4615C12.7983 2.33331 13.0833 2.44998 13.3166 2.68331C13.55 2.91665 13.6666 3.2017 13.6666 3.53848V12.4615C13.6666 12.7983 13.55 13.0833 13.3166 13.3166C13.0833 13.55 12.7983 13.6666 12.4615 13.6666H7.99365ZM7.08981 10.8461L6.39748 10.123L8.02048 8.49998H2.33331V7.49998H8.02048L6.39748 5.87698L7.08981 5.15381L9.93581 7.99998L7.08981 10.8461Z" fill="#171D9B"/>
</g>
</svg>
