<svg width="24" height="25" viewBox="0 0 24 25" fill="none" xmlns="http://www.w3.org/2000/svg">
<g id="ic:baseline-whatsapp">
<path id="Vector" d="M19.05 5.40384C18.1332 4.47881 17.0412 3.74539 15.8376 3.24633C14.6341 2.74728 13.3431 2.4926 12.04 2.49713C6.57999 2.49713 2.12999 6.9421 2.12999 12.3959C2.12999 14.144 2.58999 15.842 3.44999 17.3403L2.04999 22.4745L7.29999 21.0961C8.74999 21.8852 10.38 22.3047 12.04 22.3047C17.5 22.3047 21.95 17.8598 21.95 12.4059C21.95 9.75891 20.92 7.27173 19.05 5.40384ZM12.04 20.6266C10.56 20.6266 9.10999 20.2271 7.83999 19.4779L7.53999 19.2981L4.41999 20.1172L5.24999 17.0806L5.04999 16.771C4.22773 15.4594 3.79113 13.9434 3.78999 12.3959C3.78999 7.86106 7.48999 4.16524 12.03 4.16524C14.23 4.16524 16.3 5.02427 17.85 6.58251C18.6175 7.34561 19.2257 8.25328 19.6394 9.25291C20.0531 10.2525 20.264 11.3243 20.26 12.4059C20.28 16.9408 16.58 20.6266 12.04 20.6266ZM16.56 14.4736C16.31 14.3537 15.09 13.7544 14.87 13.6645C14.64 13.5846 14.48 13.5446 14.31 13.7844C14.14 14.0341 13.67 14.5934 13.53 14.7533C13.39 14.9231 13.24 14.9431 12.99 14.8132C12.74 14.6933 11.94 14.4236 11 13.5846C10.26 12.9253 9.76999 12.1162 9.61999 11.8665C9.47999 11.6168 9.59999 11.487 9.72999 11.3571C9.83999 11.2472 9.97999 11.0674 10.1 10.9276C10.22 10.7878 10.27 10.6779 10.35 10.5181C10.43 10.3482 10.39 10.2084 10.33 10.0885C10.27 9.96868 9.76999 8.75006 9.56999 8.25062C9.36999 7.77116 9.15999 7.8311 9.00999 7.82111H8.52999C8.35999 7.82111 8.09999 7.88104 7.86999 8.13076C7.64999 8.38047 7.00999 8.9798 7.00999 10.1984C7.00999 11.417 7.89999 12.5957 8.01999 12.7555C8.13999 12.9253 9.76999 15.4225 12.25 16.4913C12.84 16.751 13.3 16.9008 13.66 17.0107C14.25 17.2005 14.79 17.1705 15.22 17.1106C15.7 17.0407 16.69 16.5113 16.89 15.9319C17.1 15.3526 17.1 14.8631 17.03 14.7533C16.96 14.6434 16.81 14.5934 16.56 14.4736Z" fill="white"/>
</g>
</svg>
