<svg width="25" height="25" viewBox="0 0 25 25" fill="none" xmlns="http://www.w3.org/2000/svg">
<g id="mdi:instagram">
<path id="Vector" d="M8.39998 2.49707H16.8C20 2.49707 22.6 5.09413 22.6 8.29052V16.681C22.6 18.2175 21.9889 19.6911 20.9012 20.7776C19.8135 21.8641 18.3382 22.4745 16.8 22.4745H8.39998C5.19998 22.4745 2.59998 19.8774 2.59998 16.681V8.29052C2.59998 6.754 3.21105 5.28041 4.29876 4.19393C5.38647 3.10745 6.86172 2.49707 8.39998 2.49707ZM8.19998 4.49481C7.2452 4.49481 6.32952 4.87367 5.65439 5.54803C4.97926 6.2224 4.59998 7.13704 4.59998 8.09074V16.8808C4.59998 18.8686 6.20998 20.4767 8.19998 20.4767H17C17.9548 20.4767 18.8704 20.0979 19.5456 19.4235C20.2207 18.7491 20.6 17.8345 20.6 16.8808V8.09074C20.6 6.10299 18.99 4.49481 17 4.49481H8.19998ZM17.85 5.99312C18.1815 5.99312 18.4994 6.12466 18.7339 6.35882C18.9683 6.59297 19.1 6.91056 19.1 7.2417C19.1 7.57285 18.9683 7.89043 18.7339 8.12459C18.4994 8.35874 18.1815 8.49029 17.85 8.49029C17.5185 8.49029 17.2005 8.35874 16.9661 8.12459C16.7317 7.89043 16.6 7.57285 16.6 7.2417C16.6 6.91056 16.7317 6.59297 16.9661 6.35882C17.2005 6.12466 17.5185 5.99312 17.85 5.99312ZM12.6 7.49142C13.9261 7.49142 15.1978 8.01761 16.1355 8.95423C17.0732 9.89085 17.6 11.1612 17.6 12.4858C17.6 13.8104 17.0732 15.0807 16.1355 16.0173C15.1978 16.9539 13.9261 17.4801 12.6 17.4801C11.2739 17.4801 10.0021 16.9539 9.06444 16.0173C8.12676 15.0807 7.59998 13.8104 7.59998 12.4858C7.59998 11.1612 8.12676 9.89085 9.06444 8.95423C10.0021 8.01761 11.2739 7.49142 12.6 7.49142ZM12.6 9.48916C11.8043 9.48916 11.0413 9.80487 10.4787 10.3668C9.91605 10.9288 9.59998 11.691 9.59998 12.4858C9.59998 13.2805 9.91605 14.0427 10.4787 14.6047C11.0413 15.1667 11.8043 15.4824 12.6 15.4824C13.3956 15.4824 14.1587 15.1667 14.7213 14.6047C15.2839 14.0427 15.6 13.2805 15.6 12.4858C15.6 11.691 15.2839 10.9288 14.7213 10.3668C14.1587 9.80487 13.3956 9.48916 12.6 9.48916Z" fill="white"/>
</g>
</svg>
