<svg width="26" height="25" viewBox="0 0 26 25" fill="none" xmlns="http://www.w3.org/2000/svg">
<g id="ant-design:linkedin-outlined">
<path id="Vector" d="M21.4958 2.73145H5.10419C4.23749 2.73145 3.53436 3.43378 3.53436 4.2995V20.6726C3.53436 21.5383 4.23749 22.2406 5.10419 22.2406H21.4958C22.3625 22.2406 23.0656 21.5383 23.0656 20.6726V4.2995C23.0656 3.43378 22.3625 2.73145 21.4958 2.73145ZM21.4958 20.6799C10.5632 20.6775 5.09686 20.675 5.09686 20.6726C5.0993 9.75231 5.10175 4.29218 5.10419 4.29218C16.0368 4.29462 21.5031 4.29706 21.5031 4.2995C21.5007 15.2198 21.4982 20.6799 21.4958 20.6799ZM6.42987 10.0449H9.32782V19.3557H6.42987V10.0449ZM7.88007 8.77198C8.80536 8.77198 9.55975 8.02087 9.55975 7.09419C9.55975 6.87386 9.51631 6.65568 9.4319 6.45212C9.34748 6.24856 9.22376 6.06361 9.06778 5.90781C8.91181 5.75201 8.72664 5.62843 8.52285 5.54411C8.31907 5.45979 8.10065 5.4164 7.88007 5.4164C7.65949 5.4164 7.44107 5.45979 7.23728 5.54411C7.03349 5.62843 6.84832 5.75201 6.69235 5.90781C6.53637 6.06361 6.41265 6.24856 6.32824 6.45212C6.24382 6.65568 6.20038 6.87386 6.20038 7.09419C6.19794 8.02087 6.94989 8.77198 7.88007 8.77198ZM14.0397 14.7491C14.0397 13.5347 14.2717 12.3592 15.778 12.3592C17.2624 12.3592 17.2844 13.7468 17.2844 14.8271V19.3557H20.1799V14.2492C20.1799 11.7422 19.6379 9.81328 16.7057 9.81328C15.2971 9.81328 14.3522 10.5863 13.9641 11.3179H13.925V10.0449H11.1442V19.3557H14.0397V14.7491Z" fill="white"/>
</g>
</svg>
