<svg width="16" height="16" viewBox="0 0 16 16" fill="none" xmlns="http://www.w3.org/2000/svg">
<g id="phone">
<path id="Vector" d="M12.6923 7.82052C12.6539 6.54185 12.1883 5.45619 11.2955 4.56352C10.4027 3.67074 9.31704 3.20513 8.03848 3.16669V2.16669C8.81626 2.1838 9.54442 2.34319 10.223 2.64485C10.9016 2.94663 11.4944 3.35091 12.0013 3.85769C12.5081 4.36458 12.9123 4.9573 13.214 5.63585C13.5158 6.31452 13.6752 7.04274 13.6923 7.82052H12.6923ZM10.0256 7.82052C9.9872 7.2863 9.77992 6.83008 9.40381 6.45185C9.0277 6.07374 8.57259 5.86758 8.03848 5.83335V4.83335C8.84959 4.86758 9.54059 5.17119 10.1115 5.74419C10.6825 6.3173 10.9872 7.00941 11.0256 7.82052H10.0256ZM12.9601 13.6667C11.7038 13.6667 10.4416 13.3746 9.17365 12.7904C7.90576 12.2061 6.73976 11.382 5.67565 10.318C4.61587 9.25391 3.79387 8.08891 3.20965 6.82302C2.62542 5.55724 2.33331 4.29619 2.33331 3.03985C2.33331 2.83985 2.39998 2.67208 2.53331 2.53652C2.66665 2.40108 2.83331 2.33335 3.03331 2.33335H5.20765C5.37598 2.33335 5.52448 2.3883 5.65315 2.49819C5.78181 2.60797 5.86365 2.74363 5.89865 2.90519L6.28081 4.86669C6.30726 5.04869 6.3017 5.20508 6.26415 5.33585C6.22648 5.46663 6.15892 5.57646 6.06148 5.66535L4.52181 7.16419C4.76959 7.61796 5.0527 8.04724 5.37115 8.45202C5.68948 8.85669 6.03415 9.24319 6.40515 9.61152C6.77092 9.97741 7.15981 10.3172 7.57181 10.6309C7.98381 10.9445 8.4287 11.2364 8.90648 11.5065L10.4025 9.99752C10.5068 9.88897 10.6331 9.81285 10.7815 9.76919C10.9297 9.72563 11.0838 9.71497 11.2436 9.73719L13.0948 10.1142C13.2631 10.1586 13.4005 10.2445 13.507 10.3719C13.6134 10.4992 13.6666 10.6436 13.6666 10.8052V12.9667C13.6666 13.1667 13.5989 13.3334 13.4635 13.4667C13.3279 13.6 13.1601 13.6667 12.9601 13.6667ZM4.04865 6.21802L5.23848 5.07952C5.25981 5.06241 5.2737 5.03891 5.28015 5.00902C5.28659 4.97913 5.28554 4.95135 5.27698 4.92569L4.98715 3.43585C4.97859 3.40174 4.96365 3.37613 4.94231 3.35902C4.92098 3.34191 4.8932 3.33335 4.85898 3.33335H3.43331C3.40765 3.33335 3.38626 3.34191 3.36915 3.35902C3.35215 3.37613 3.34365 3.39752 3.34365 3.42319C3.37776 3.87874 3.45231 4.34152 3.56731 4.81152C3.6822 5.28163 3.84265 5.75047 4.04865 6.21802ZM9.84865 11.9795C10.2905 12.1855 10.7514 12.343 11.2313 12.452C11.7113 12.5609 12.1598 12.6256 12.5768 12.6462C12.6025 12.6462 12.6239 12.6376 12.641 12.6205C12.6581 12.6034 12.6666 12.582 12.6666 12.5564V11.1539C12.6666 11.1196 12.6581 11.0919 12.641 11.0705C12.6239 11.0492 12.5983 11.0342 12.5641 11.0257L11.1641 10.741C11.1385 10.7325 11.116 10.7314 11.0968 10.7379C11.0776 10.7443 11.0573 10.7582 11.0358 10.7795L9.84865 11.9795Z" fill="#171D9B"/>
</g>
</svg>
