<svg width="16" height="16" viewBox="0 0 16 16" fill="none" xmlns="http://www.w3.org/2000/svg">
<g id="owener">
<path id="Vector" d="M8 2.41034L13 6.16667V13.6667H3V6.16667L8 2.41034ZM7.99917 9.83334C8.50828 9.83334 8.94122 9.65517 9.298 9.29884C9.65489 8.94251 9.83333 8.50984 9.83333 8.00084C9.83333 7.49173 9.65517 7.05878 9.29883 6.70201C8.9425 6.34512 8.50983 6.16667 8.00083 6.16667C7.49172 6.16667 7.05878 6.34484 6.702 6.70117C6.34511 7.05751 6.16667 7.49017 6.16667 7.99917C6.16667 8.50828 6.34483 8.94123 6.70117 9.29801C7.0575 9.65489 7.49017 9.83334 7.99917 9.83334ZM8 8.83334C7.76833 8.83334 7.57156 8.75234 7.40967 8.59034C7.24767 8.42845 7.16667 8.23167 7.16667 8.00001C7.16667 7.76834 7.24767 7.57156 7.40967 7.40967C7.57156 7.24767 7.76833 7.16667 8 7.16667C8.23167 7.16667 8.42844 7.24767 8.59033 7.40967C8.75233 7.57156 8.83333 7.76834 8.83333 8.00001C8.83333 8.23167 8.75233 8.42845 8.59033 8.59034C8.42844 8.75234 8.23167 8.83334 8 8.83334ZM7.98283 11.8333C7.47039 11.8333 6.97183 11.9038 6.48717 12.0448C6.0025 12.1858 5.54439 12.3931 5.11283 12.6667H10.8552C10.4278 12.3931 9.97039 12.1858 9.48283 12.0448C8.99539 11.9038 8.49539 11.8333 7.98283 11.8333ZM4 6.66667V12.2308C4.56922 11.7804 5.19206 11.4348 5.8685 11.1942C6.54483 10.9536 7.24894 10.8333 7.98083 10.8333C8.72017 10.8333 9.4315 10.9526 10.1148 11.191C10.7981 11.4294 11.4264 11.7739 12 12.2243V6.66667L8 3.66667L4 6.66667Z" fill="#171D9B"/>
</g>
</svg>
