<svg width="24" height="24" viewBox="0 0 24 24" fill="none" xmlns="http://www.w3.org/2000/svg">
<g id="whatsapp">
<path id="Vector" d="M18.3342 5.6249C17.5072 4.78957 16.5222 4.12727 15.4366 3.67661C14.351 3.22595 13.1865 2.99596 12.0111 3.00005C7.0861 3.00005 3.07216 7.014 3.07216 11.939C3.07216 13.5175 3.48709 15.0509 4.26281 16.4039L3 21.0402L7.73555 19.7955C9.04346 20.5081 10.5137 20.8869 12.0111 20.8869C16.936 20.8869 20.95 16.873 20.95 11.948C20.95 9.55766 20.0209 7.31166 18.3342 5.6249ZM12.0111 19.3715C10.6761 19.3715 9.36819 19.0107 8.22263 18.3342L7.95203 18.1719L5.13776 18.9115L5.88643 16.1694L5.70603 15.8898C4.96435 14.7054 4.57052 13.3364 4.5695 11.939C4.5695 7.84384 7.90693 4.50641 12.0021 4.50641C13.9865 4.50641 15.8536 5.28214 17.2517 6.68927C17.944 7.37838 18.4926 8.19803 18.8658 9.10073C19.239 10.0034 19.4292 10.9712 19.4256 11.948C19.4436 16.0431 16.1062 19.3715 12.0111 19.3715ZM16.0882 13.8151C15.8627 13.7069 14.7622 13.1657 14.5638 13.0845C14.3563 13.0124 14.212 12.9763 14.0586 13.1928C13.9053 13.4183 13.4813 13.9234 13.3551 14.0677C13.2288 14.2211 13.0935 14.2391 12.868 14.1218C12.6425 14.0136 11.9209 13.77 11.073 13.0124C10.4055 12.417 9.96351 11.6864 9.82821 11.4609C9.70193 11.2354 9.81017 11.1181 9.92743 11.0009C10.0267 10.9017 10.1529 10.7393 10.2612 10.613C10.3694 10.4867 10.4145 10.3875 10.4867 10.2432C10.5588 10.0898 10.5228 9.96357 10.4686 9.85533C10.4145 9.74709 9.96351 8.64663 9.78311 8.19563C9.60271 7.76266 9.41329 7.81678 9.27799 7.80776H8.84502C8.69168 7.80776 8.45716 7.86188 8.24969 8.08739C8.05125 8.31289 7.47397 8.8541 7.47397 9.95455C7.47397 11.055 8.27676 12.1194 8.385 12.2637C8.49324 12.417 9.96351 14.6721 12.2005 15.6372C12.7327 15.8717 13.1476 16.007 13.4723 16.1063C14.0045 16.2776 14.4916 16.2506 14.8795 16.1965C15.3124 16.1333 16.2054 15.6552 16.3858 15.1321C16.5752 14.6089 16.5752 14.1669 16.5121 14.0677C16.449 13.9685 16.3137 13.9234 16.0882 13.8151Z" fill="#171C8F"/>
</g>
</svg>
