<svg width="25" height="25" viewBox="0 0 25 25" fill="none" xmlns="http://www.w3.org/2000/svg">
<g id="mingcute:youtube-line" clip-path="url(#clip0_31012_5919)">
<g id="Group">
<path id="Vector" d="M12.4 4.49512C13.255 4.49512 14.132 4.51709 14.982 4.55305L15.986 4.601L16.947 4.65793L17.847 4.71886L18.669 4.78279C19.5611 4.85099 20.4005 5.23123 21.0396 5.85662C21.6786 6.482 22.0765 7.31247 22.163 8.20192L22.203 8.62644L22.278 9.53542C22.348 10.4773 22.4 11.5042 22.4 12.4861C22.4 13.468 22.348 14.4948 22.278 15.4367L22.203 16.3457C22.19 16.4915 22.177 16.6324 22.163 16.7702C22.0764 17.6598 21.6785 18.4904 21.0392 19.1158C20.3999 19.7412 19.5603 20.1214 18.668 20.1894L17.848 20.2523L16.948 20.3142L15.986 20.3712L14.982 20.4191C14.1219 20.4564 13.261 20.4758 12.4 20.477C11.539 20.4758 10.6782 20.4564 9.81802 20.4191L8.81402 20.3712L7.85302 20.3142L6.95302 20.2523L6.13102 20.1894C5.23897 20.1212 4.39958 19.7409 3.7605 19.1155C3.12142 18.4902 2.7236 17.6597 2.63702 16.7702L2.59702 16.3457L2.52202 15.4367C2.44556 14.455 2.40487 13.4708 2.40002 12.4861C2.40002 11.5042 2.45202 10.4773 2.52202 9.53542L2.59702 8.62644C2.61002 8.48061 2.62302 8.33977 2.63702 8.20192C2.72357 7.31263 3.12124 6.48228 3.76012 5.85692C4.39899 5.23156 5.23815 4.85122 6.13002 4.78279L6.95102 4.71886L7.85102 4.65793L8.81302 4.601L9.81702 4.55305C10.6775 4.51573 11.5387 4.49641 12.4 4.49512ZM12.4 6.49286C11.575 6.49286 10.726 6.51483 9.90002 6.54879L8.92202 6.59574L7.98302 6.65068L7.10102 6.71061L6.29302 6.77354C5.86836 6.80364 5.46807 6.98295 5.16312 7.27969C4.85817 7.57644 4.66825 7.97145 4.62702 8.39471C4.51002 9.60234 4.40002 11.1056 4.40002 12.4861C4.40002 13.8665 4.51002 15.3698 4.62702 16.5775C4.71202 17.4485 5.40402 18.1257 6.29302 18.1986L7.10102 18.2605L7.98302 18.3205L8.92202 18.3764L9.90002 18.4234C10.726 18.4573 11.575 18.4793 12.4 18.4793C13.225 18.4793 14.074 18.4573 14.9 18.4234L15.878 18.3764L16.817 18.3215L17.699 18.2615L18.507 18.1986C18.9317 18.1685 19.332 17.9892 19.6369 17.6925C19.9419 17.3957 20.1318 17.0007 20.173 16.5775C20.29 15.3698 20.4 13.8665 20.4 12.4861C20.4 11.1056 20.29 9.60234 20.173 8.39471C20.1318 7.97145 19.9419 7.57644 19.6369 7.27969C19.332 6.98295 18.9317 6.80364 18.507 6.77354L17.699 6.71161L16.817 6.65168L15.878 6.59574L14.9 6.54879C14.0672 6.513 13.2337 6.49435 12.4 6.49286ZM10.4 10.0638C10.4 9.96619 10.4238 9.87003 10.4694 9.78369C10.515 9.69735 10.5811 9.62345 10.6618 9.56841C10.7425 9.51338 10.8355 9.47887 10.9326 9.4679C11.0297 9.45693 11.128 9.46982 11.219 9.50545L11.3 9.5454L15.5 11.9667C15.5837 12.0149 15.6544 12.0825 15.7063 12.1639C15.7581 12.2452 15.7896 12.3379 15.7979 12.434C15.8063 12.5301 15.7913 12.6268 15.7542 12.7158C15.7171 12.8049 15.6591 12.8837 15.585 12.9456L15.5 13.0055L11.3 15.4277C11.2154 15.4767 11.1201 15.5043 11.0223 15.508C10.9246 15.5117 10.8274 15.4916 10.7393 15.4492C10.6511 15.4069 10.5747 15.3436 10.5166 15.265C10.4585 15.1864 10.4206 15.0948 10.406 14.9982L10.4 14.9083V10.0638Z" fill="white"/>
</g>
</g>
<defs>
<clipPath id="clip0_31012_5919">
<rect width="24" height="23.9729" fill="white" transform="translate(0.400024 0.499512)"/>
</clipPath>
</defs>
</svg>
